<?xml version="1.0" standalone="no"?>
<!DOCTYPE svg PUBLIC "-//W3C//DTD SVG 20010904//EN"
 "http://www.w3.org/TR/2001/REC-SVG-20010904/DTD/svg10.dtd">
<svg version="1.0" xmlns="http://www.w3.org/2000/svg"
 width="1048.000000pt" height="1048.000000pt" viewBox="0 0 1048.000000 1048.000000"
 preserveAspectRatio="xMidYMid meet">
<metadata>
Created by potrace 1.14, written by Peter Selinger 2001-2017
</metadata>
<g transform="translate(0.000000,1048.000000) scale(0.100000,-0.100000)"
fill="#000000" stroke="none">
<path d="M4498 9605 c-2 -2 -22 -7 -44 -10 -21 -4 -55 -14 -74 -24 -19 -10
-51 -20 -70 -23 -41 -7 -267 -115 -313 -151 -18 -13 -55 -46 -83 -73 -29 -27
-68 -64 -89 -83 -43 -39 -135 -176 -135 -201 0 -9 -8 -28 -18 -41 -47 -60 -92
-274 -92 -433 0 -69 4 -91 24 -128 34 -65 57 -88 85 -88 22 0 23 -2 16 -42
-14 -87 -16 -105 -18 -218 -3 -110 12 -223 33 -262 6 -10 10 -23 10 -30 0 -7
19 -33 41 -57 l41 -44 -7 -86 c-3 -47 -10 -138 -13 -201 -4 -63 -10 -119 -13
-125 -4 -5 -10 -59 -14 -120 -4 -60 -11 -118 -16 -127 -5 -9 -9 -45 -9 -80 0
-35 -5 -92 -10 -128 -6 -36 -12 -182 -15 -325 -6 -286 -3 -313 54 -428 33 -69
87 -132 125 -146 22 -9 36 -6 36 8 0 3 -14 12 -30 19 -45 21 -75 67 -105 167
-24 80 -27 102 -24 215 2 69 5 131 7 138 5 13 92 -153 92 -174 0 -18 75 -81
129 -109 55 -27 121 -33 168 -13 27 11 27 11 -25 20 -67 10 -96 26 -150 78
-50 50 -77 98 -87 159 -4 24 -13 58 -20 75 -20 48 -40 192 -40 281 1 60 15
198 21 204 12 12 33 -77 37 -164 10 -195 102 -432 205 -532 47 -46 133 -86
166 -77 22 5 26 3 26 -15 0 -35 -41 -67 -93 -75 -50 -8 -56 -15 -31 -40 21
-21 57 -20 102 3 58 30 85 58 107 113 34 84 64 68 46 -25 -4 -26 -5 -47 -1
-47 14 0 58 96 74 162 9 37 19 95 22 130 3 35 9 67 13 71 5 4 17 -20 27 -55
15 -50 19 -92 18 -200 -1 -76 0 -138 1 -138 1 0 11 8 22 18 27 23 51 62 57 92
3 14 15 59 26 100 11 41 23 91 26 110 9 57 20 55 38 -9 13 -46 15 -84 11 -166
-6 -135 -24 -188 -77 -237 -32 -29 -39 -41 -30 -50 9 -9 17 -7 34 9 106 95
133 123 155 160 l24 42 37 -13 c20 -7 62 -16 93 -20 47 -6 58 -11 68 -32 6
-14 11 -34 11 -46 0 -12 7 -29 16 -39 15 -17 12 -20 -60 -56 -45 -22 -76 -44
-76 -53 0 -8 9 -30 20 -48 18 -29 49 -107 50 -123 0 -3 -16 -5 -36 -6 -25 -1
-45 -9 -63 -27 -25 -26 -25 -26 -7 -56 l18 -31 -35 -52 c-42 -63 -93 -179
-101 -227 -3 -19 -8 -82 -11 -140 -3 -58 -10 -106 -15 -108 -6 -2 -10 -8 -10
-13 0 -16 -109 -252 -125 -268 -7 -9 -28 -52 -45 -96 -17 -44 -53 -127 -80
-185 -27 -58 -66 -159 -87 -225 l-38 -120 0 -190 c0 -187 7 -306 25 -455 9
-70 13 -120 25 -280 3 -36 7 -131 10 -213 4 -107 12 -180 31 -265 32 -146 35
-277 9 -502 -14 -126 -21 -327 -30 -890 -3 -201 -8 -486 -10 -633 l-5 -268 62
6 c35 3 86 8 113 10 28 2 93 8 145 12 130 11 1874 1 2100 -12 30 -2 98 -6 150
-9 265 -18 272 -18 265 3 -3 11 -8 28 -10 38 -12 53 -36 160 -40 173 -2 8 -11
47 -19 85 -9 39 -27 120 -41 180 -14 61 -35 151 -45 200 -11 50 -27 117 -35
150 -14 60 -19 85 -30 180 -3 28 -8 64 -10 80 -3 17 -16 122 -30 235 -14 113
-28 216 -30 230 -2 14 -7 48 -10 75 -8 72 -16 136 -20 165 -2 14 -7 45 -10 70
-20 165 -36 287 -50 365 -17 97 -21 121 -30 175 -3 19 -7 46 -10 60 -3 14 -7
39 -10 55 -3 17 -7 39 -9 50 -5 29 -14 103 -36 300 -6 55 -13 111 -15 125 -2
14 -7 52 -10 85 -4 33 -17 116 -30 185 -14 69 -27 141 -30 160 -3 19 -8 42
-10 50 -2 8 -6 31 -9 50 -3 19 -13 73 -21 120 -9 47 -22 121 -30 165 -8 44
-17 91 -20 105 -3 14 -12 68 -20 120 -36 219 -69 376 -91 428 -8 20 -21 60
-28 91 -40 158 -60 219 -90 275 -19 34 -41 84 -50 111 -9 28 -61 140 -116 250
l-100 200 58 6 c35 3 74 15 95 28 41 25 97 86 97 104 0 7 7 23 16 35 l15 22
38 -19 c20 -11 43 -27 51 -36 7 -9 26 -23 42 -31 25 -13 28 -13 28 2 0 23 62
12 148 -27 37 -16 76 -28 87 -26 16 3 14 6 -15 20 -42 19 -87 67 -123 130 -24
43 -24 47 -7 47 17 0 50 34 50 52 0 3 -14 2 -32 -3 -21 -6 -36 -5 -43 2 -5 5
-11 68 -13 142 -2 128 -2 131 15 107 26 -36 123 -133 158 -157 17 -11 48 -26
70 -33 34 -10 47 -9 80 4 38 16 40 28 7 32 -96 14 -110 22 -162 91 -38 50 -87
184 -74 204 3 5 18 -7 35 -26 16 -18 52 -45 79 -58 43 -22 61 -25 133 -22 116
4 165 13 217 43 64 36 90 62 90 90 l0 24 -27 -29 c-39 -42 -65 -53 -118 -53
-38 0 -62 9 -124 46 -105 64 -172 151 -186 245 -6 38 -2 55 19 97 59 116 85
360 63 589 -7 79 -7 82 15 88 13 4 43 24 68 44 96 77 119 105 146 176 23 62
26 81 22 171 -3 100 -4 101 -48 167 -24 37 -48 67 -52 67 -11 0 -12 3 37 -77
38 -63 38 -63 32 -145 -7 -101 -19 -138 -68 -203 -49 -67 -87 -101 -131 -119
-49 -21 -47 -29 -63 263 -4 58 -8 118 -10 135 -3 17 -7 69 -10 116 -4 47 -13
108 -21 136 -18 68 -27 124 -18 124 4 0 14 -8 23 -18 19 -23 61 -46 61 -35 0
5 -8 16 -17 25 -33 30 -53 62 -53 86 0 13 4 20 10 17 19 -12 10 5 -33 62 -24
32 -68 94 -97 138 -46 69 -97 130 -161 194 -9 9 -26 32 -37 51 -38 64 -176
224 -252 293 -166 151 -229 188 -405 238 -207 59 -389 72 -631 44 -209 -25
-288 -24 -359 4 -51 21 -81 24 -206 27 -80 2 -148 1 -151 -1z m240 -31 c18 -3
35 -10 38 -15 3 -5 18 -9 34 -9 27 0 48 -15 37 -26 -2 -3 -17 -7 -32 -10 -16
-3 -36 -9 -45 -14 -11 -6 -21 -5 -29 3 -10 9 -11 8 -6 -5 4 -11 2 -18 -5 -18
-6 0 -9 -4 -6 -8 4 -8 -117 -61 -148 -66 -7 -1 -26 -12 -43 -24 -17 -12 -36
-22 -42 -22 -6 0 -11 -3 -11 -8 0 -14 -81 -93 -90 -87 -6 3 -7 -1 -4 -9 3 -9
1 -16 -5 -16 -7 0 -19 -6 -27 -12 -8 -7 -20 -18 -27 -23 -34 -30 -75 -54 -81
-48 -3 3 -6 0 -6 -8 0 -8 -9 -20 -21 -27 -12 -7 -19 -16 -16 -19 3 -3 -4 -16
-16 -29 -37 -39 -48 -54 -41 -54 4 0 -5 -13 -21 -30 -15 -16 -32 -27 -37 -24
-5 3 -8 2 -7 -3 3 -20 -2 -34 -11 -28 -5 3 -10 0 -10 -8 0 -8 -11 -26 -25 -41
-14 -15 -25 -30 -25 -34 0 -10 -60 -62 -71 -62 -5 0 -9 -3 -8 -7 2 -17 -14
-53 -24 -53 -6 0 -7 -3 -4 -7 4 -3 -4 -21 -18 -39 -14 -18 -25 -36 -25 -41 0
-5 -11 -25 -25 -45 -14 -20 -34 -61 -45 -91 -24 -64 -46 -89 -61 -66 -5 8 -9
10 -9 6 0 -19 -30 23 -30 43 0 12 -4 19 -9 16 -11 -7 -23 22 -15 35 3 5 1 9
-5 9 -11 0 -9 19 4 40 8 13 7 13 -8 1 -10 -8 -20 -11 -23 -8 -9 8 -12 187 -4
187 3 0 5 13 4 28 -1 15 7 46 18 68 11 21 21 46 23 54 2 9 12 31 24 50 12 19
28 50 36 68 9 18 22 35 30 39 8 3 15 11 15 18 0 7 11 23 25 36 13 13 25 28 25
33 0 5 19 28 43 52 23 25 49 52 58 62 17 18 26 26 99 82 25 19 49 41 53 47 8
14 88 53 106 53 6 0 11 5 11 11 0 8 6 7 17 -2 10 -8 14 -9 10 -2 -9 14 2 22
40 27 15 3 53 12 83 20 30 8 69 16 87 18 17 1 31 7 30 13 -1 5 6 9 15 9 10 -1
15 2 13 7 -3 4 3 8 12 7 34 -1 145 11 150 16 3 2 15 3 26 0 12 -2 37 -7 55
-10z m-972 -1495 c-1 -29 3 -57 9 -63 6 -6 11 -22 12 -36 1 -38 9 -93 17 -112
10 -22 4 -82 -9 -87 -10 -4 -30 30 -39 69 -1 3 -7 14 -13 25 -17 31 -11 234 7
245 8 5 16 10 17 10 1 0 0 -23 -1 -51z m3076 -567 c-10 -3 -10 -7 -1 -18 6 -8
8 -14 4 -14 -4 0 -2 -6 4 -13 12 -16 16 -70 7 -107 -3 -14 0 -33 9 -46 17 -26
10 -174 -9 -186 -8 -6 -8 -8 1 -8 15 0 5 -39 -16 -64 -9 -11 -10 -16 -4 -12
10 5 11 1 4 -17 -6 -14 -7 -28 -4 -31 4 -3 1 -6 -6 -6 -7 0 -10 -4 -6 -9 3 -5
1 -12 -5 -16 -6 -4 -7 -11 -4 -17 4 -6 1 -9 -7 -6 -8 3 -14 10 -14 17 0 6 -5
15 -11 19 -7 5 -10 47 -9 122 2 63 4 115 5 115 1 0 3 11 4 25 0 14 4 30 7 35
4 6 5 19 3 30 -2 11 -1 27 3 35 3 8 7 26 8 40 1 14 6 36 10 50 5 14 9 39 10
55 3 45 4 47 17 39 9 -6 9 -9 0 -12z m-2815 -684 c0 -13 10 -57 22 -98 12 -41
23 -80 23 -87 1 -7 5 -10 9 -7 4 2 11 -6 14 -18 14 -45 65 -148 73 -148 5 0
17 -18 28 -39 10 -22 22 -37 26 -35 3 2 17 -10 29 -28 13 -18 29 -39 36 -46
27 -28 -1 -81 -35 -66 -9 4 -21 6 -26 5 -5 -1 -12 2 -15 6 -6 9 -55 42 -68 46
-14 4 -48 42 -60 67 -18 38 -35 109 -28 120 3 6 2 10 -4 10 -5 0 -10 8 -10 18
0 9 -2 35 -5 57 -4 22 -8 56 -10 75 -1 19 -6 56 -10 81 -13 78 -13 109 0 109
6 0 12 -10 11 -22z m2082 -615 c20 -3 38 -9 39 -14 2 -5 8 -7 13 -3 5 3 14 2
21 -2 7 -5 29 -9 49 -10 72 -4 78 -9 74 -65 -10 -116 -112 -226 -163 -176 -14
14 -11 18 22 38 40 23 34 40 -10 31 -14 -2 -24 0 -24 7 0 6 -7 11 -15 11 -10
0 -15 10 -15 28 0 20 -3 23 -10 12 -7 -12 -10 -12 -16 4 -5 14 1 26 26 46 l33
27 -29 7 c-42 11 -77 46 -63 63 6 7 16 10 21 7 6 -4 27 -9 47 -11z"/>
<path d="M4650 9539 c0 -5 5 -7 10 -4 6 3 10 8 10 11 0 2 -4 4 -10 4 -5 0 -10
-5 -10 -11z"/>
<path d="M4696 9538 c3 -5 10 -6 15 -3 13 9 11 12 -6 12 -8 0 -12 -4 -9 -9z"/>
<path d="M4669 9470 l-24 -20 33 16 c32 15 40 24 23 24 -5 0 -19 -9 -32 -20z"/>
<path d="M4345 9460 c-3 -6 1 -7 9 -4 18 7 21 14 7 14 -6 0 -13 -4 -16 -10z"/>
<path d="M4295 9240 c-3 -5 -1 -10 4 -10 6 0 11 5 11 10 0 6 -2 10 -4 10 -3 0
-8 -4 -11 -10z"/>
</g>
</svg>
